<?xml version="1.0" encoding="UTF-8"?>
<svg xmlns="http://www.w3.org/2000/svg" xmlns:xlink="http://www.w3.org/1999/xlink" width="16px" height="16px" viewBox="0 0 16 16" version="1.1">
<g id="surface1">
<path style=" stroke:none;fill-rule:evenodd;fill:rgb(81.960785%,58.431375%,19.607843%);fill-opacity:1;" d="M -0.03125 1.96875 C 1.96875 1.96875 3.96875 1.96875 5.96875 1.96875 C 5.96875 2.300781 5.96875 2.636719 5.96875 2.96875 C 8.96875 2.96875 11.96875 2.96875 14.96875 2.96875 C 14.96875 3.300781 14.96875 3.636719 14.96875 3.96875 C 10.300781 3.96875 5.636719 3.96875 0.96875 3.96875 C 0.96875 7.65625 0.96875 11.34375 0.96875 15.03125 C 0.636719 15.03125 0.300781 15.03125 -0.03125 15.03125 C -0.03125 10.675781 -0.03125 6.324219 -0.03125 1.96875 Z M -0.03125 1.96875 "/>
<path style=" stroke:none;fill-rule:evenodd;fill:rgb(91.764706%,68.235296%,29.019609%);fill-opacity:1;" d="M 14.96875 3.96875 C 15.300781 3.96875 15.636719 3.96875 15.96875 3.96875 C 15.96875 7.65625 15.96875 11.34375 15.96875 15.03125 C 10.96875 15.03125 5.96875 15.03125 0.96875 15.03125 C 0.96875 11.34375 0.96875 7.65625 0.96875 3.96875 C 5.636719 3.96875 10.300781 3.96875 14.96875 3.96875 Z M 14.96875 3.96875 "/>
</g>
</svg>
