<?xml version="1.0" encoding="UTF-8"?>
<svg xmlns="http://www.w3.org/2000/svg" xmlns:xlink="http://www.w3.org/1999/xlink" width="16px" height="16px" viewBox="0 0 16 16" version="1.1">
<g id="surface1">
<path style=" stroke:none;fill-rule:evenodd;fill:rgb(80.392158%,41.176471%,78.039217%);fill-opacity:1;" d="M -0.03125 -0.03125 C 1.96875 -0.03125 3.96875 -0.03125 5.96875 -0.03125 C 5.96875 0.300781 5.96875 0.636719 5.96875 0.96875 C 8.96875 0.96875 11.96875 0.96875 14.96875 0.96875 C 14.96875 1.28125 14.96875 1.59375 14.96875 1.90625 C 10.300781 1.90625 5.636719 1.90625 0.96875 1.90625 C 0.96875 5.59375 0.96875 9.28125 0.96875 12.96875 C 0.636719 12.96875 0.300781 12.96875 -0.03125 12.96875 C -0.03125 8.636719 -0.03125 4.300781 -0.03125 -0.03125 Z M -0.03125 -0.03125 "/>
<path style=" stroke:none;fill-rule:evenodd;fill:rgb(94.901961%,60.000002%,100%);fill-opacity:1;" d="M 14.96875 1.90625 C 15.300781 1.90625 15.636719 1.90625 15.96875 1.90625 C 15.96875 5.59375 15.96875 9.28125 15.96875 12.96875 C 14.65625 12.96875 13.34375 12.96875 12.03125 12.96875 C 12.03125 11.300781 12.03125 9.636719 12.03125 7.96875 C 12.34375 7.96875 12.65625 7.96875 12.96875 7.96875 C 12.96875 7.636719 12.96875 7.300781 12.96875 6.96875 C 13.300781 6.96875 13.636719 6.96875 13.96875 6.96875 C 13.96875 5.96875 13.96875 4.96875 13.96875 3.96875 C 13.636719 3.96875 13.300781 3.96875 12.96875 3.96875 C 12.96875 3.636719 12.96875 3.300781 12.96875 2.96875 C 11.96875 2.96875 10.96875 2.96875 9.96875 2.96875 C 9.96875 3.300781 9.96875 3.636719 9.96875 3.96875 C 9.636719 3.96875 9.300781 3.96875 8.96875 3.96875 C 8.96875 4.96875 8.96875 5.96875 8.96875 6.96875 C 9.300781 6.96875 9.636719 6.96875 9.96875 6.96875 C 9.96875 7.300781 9.96875 7.636719 9.96875 7.96875 C 10.300781 7.96875 10.636719 7.96875 10.96875 7.96875 C 10.96875 9.636719 10.96875 11.300781 10.96875 12.96875 C 10.636719 12.96875 10.300781 12.96875 9.96875 12.96875 C 9.300781 12.96875 8.636719 12.96875 7.96875 12.96875 C 7.636719 12.96875 7.300781 12.96875 6.96875 12.96875 C 6.96875 12.636719 6.96875 12.300781 6.96875 11.96875 C 7.636719 11.96875 8.300781 11.96875 8.96875 11.96875 C 8.96875 11.636719 8.96875 11.300781 8.96875 10.96875 C 8.636719 10.96875 8.300781 10.96875 7.96875 10.96875 C 7.96875 10.65625 7.96875 10.34375 7.96875 10.03125 C 7.636719 10.03125 7.300781 10.03125 6.96875 10.03125 C 6.96875 9.675781 6.96875 9.324219 6.96875 8.96875 C 6.636719 8.96875 6.300781 8.96875 5.96875 8.96875 C 5.96875 10.300781 5.96875 11.636719 5.96875 12.96875 C 4.300781 12.96875 2.636719 12.96875 0.96875 12.96875 C 0.96875 9.28125 0.96875 5.59375 0.96875 1.90625 C 5.636719 1.90625 10.300781 1.90625 14.96875 1.90625 Z M 14.96875 1.90625 "/>
<path style=" stroke:none;fill-rule:evenodd;fill:rgb(98.823529%,93.333334%,99.607843%);fill-opacity:1;" d="M 12.03125 12.96875 C 12.03125 13.324219 12.03125 13.675781 12.03125 14.03125 C 11.675781 14.03125 11.324219 14.03125 10.96875 14.03125 C 10.96875 14.34375 10.96875 14.65625 10.96875 14.96875 C 9.636719 14.96875 8.300781 14.96875 6.96875 14.96875 C 6.96875 14.65625 6.96875 14.34375 6.96875 14.03125 C 6.636719 14.03125 6.300781 14.03125 5.96875 14.03125 C 5.96875 13.675781 5.96875 13.324219 5.96875 12.96875 C 5.96875 11.636719 5.96875 10.300781 5.96875 8.96875 C 6.300781 8.96875 6.636719 8.96875 6.96875 8.96875 C 6.96875 9.324219 6.96875 9.675781 6.96875 10.03125 C 7.300781 10.03125 7.636719 10.03125 7.96875 10.03125 C 7.96875 10.34375 7.96875 10.65625 7.96875 10.96875 C 8.300781 10.96875 8.636719 10.96875 8.96875 10.96875 C 8.96875 11.300781 8.96875 11.636719 8.96875 11.96875 C 8.300781 11.96875 7.636719 11.96875 6.96875 11.96875 C 6.96875 12.300781 6.96875 12.636719 6.96875 12.96875 C 7.300781 12.96875 7.636719 12.96875 7.96875 12.96875 C 7.96875 13.324219 7.96875 13.675781 7.96875 14.03125 C 8.636719 14.03125 9.300781 14.03125 9.96875 14.03125 C 9.96875 13.675781 9.96875 13.324219 9.96875 12.96875 C 10.300781 12.96875 10.636719 12.96875 10.96875 12.96875 C 10.96875 11.300781 10.96875 9.636719 10.96875 7.96875 C 10.636719 7.96875 10.300781 7.96875 9.96875 7.96875 C 9.96875 7.636719 9.96875 7.300781 9.96875 6.96875 C 9.636719 6.96875 9.300781 6.96875 8.96875 6.96875 C 8.96875 5.96875 8.96875 4.96875 8.96875 3.96875 C 9.300781 3.96875 9.636719 3.96875 9.96875 3.96875 C 9.96875 3.636719 9.96875 3.300781 9.96875 2.96875 C 10.96875 2.96875 11.96875 2.96875 12.96875 2.96875 C 12.96875 3.300781 12.96875 3.636719 12.96875 3.96875 C 13.300781 3.96875 13.636719 3.96875 13.96875 3.96875 C 13.96875 4.96875 13.96875 5.96875 13.96875 6.96875 C 13.636719 6.96875 13.300781 6.96875 12.96875 6.96875 C 12.96875 7.300781 12.96875 7.636719 12.96875 7.96875 C 12.65625 7.96875 12.34375 7.96875 12.03125 7.96875 C 12.03125 9.636719 12.03125 11.300781 12.03125 12.96875 Z M 7.96875 12.96875 C 8.636719 12.96875 9.300781 12.96875 9.96875 12.96875 C 9.96875 13.324219 9.96875 13.675781 9.96875 14.03125 C 9.300781 14.03125 8.636719 14.03125 7.96875 14.03125 C 7.96875 13.675781 7.96875 13.324219 7.96875 12.96875 Z M 7.96875 12.96875 "/>
<path style=" stroke:none;fill-rule:evenodd;fill:rgb(94.901961%,60.000002%,100%);fill-opacity:1;" d="M 10.96875 3.96875 C 11.324219 3.96875 11.675781 3.96875 12.03125 3.96875 C 12.03125 4.300781 12.03125 4.636719 12.03125 4.96875 C 12.34375 4.96875 12.65625 4.96875 12.96875 4.96875 C 12.96875 5.324219 12.96875 5.675781 12.96875 6.03125 C 12.65625 6.03125 12.34375 6.03125 12.03125 6.03125 C 12.03125 6.34375 12.03125 6.65625 12.03125 6.96875 C 11.675781 6.96875 11.324219 6.96875 10.96875 6.96875 C 10.96875 6.65625 10.96875 6.34375 10.96875 6.03125 C 10.636719 6.03125 10.300781 6.03125 9.96875 6.03125 C 9.96875 5.675781 9.96875 5.324219 9.96875 4.96875 C 10.300781 4.96875 10.636719 4.96875 10.96875 4.96875 C 10.96875 4.636719 10.96875 4.300781 10.96875 3.96875 Z M 10.96875 3.96875 "/>
</g>
</svg>
