<?xml version="1.0" encoding="UTF-8"?>
<svg xmlns="http://www.w3.org/2000/svg" xmlns:xlink="http://www.w3.org/1999/xlink" width="16px" height="16px" viewBox="0 0 16 16" version="1.1">
<g id="surface1">
<path style=" stroke:none;fill-rule:evenodd;fill:rgb(42.352942%,23.137255%,64.705884%);fill-opacity:1;" d="M -0.03125 0.96875 C 1.96875 0.96875 3.96875 0.96875 5.96875 0.96875 C 5.96875 1.300781 5.96875 1.636719 5.96875 1.96875 C 8.636719 1.96875 11.300781 1.96875 13.96875 1.96875 C 13.96875 2.96875 13.96875 3.96875 13.96875 4.96875 C 12.96875 4.96875 11.96875 4.96875 10.96875 4.96875 C 10.96875 4.636719 10.96875 4.300781 10.96875 3.96875 C 10.300781 3.96875 9.636719 3.96875 8.96875 3.96875 C 8.96875 4.300781 8.96875 4.636719 8.96875 4.96875 C 6.96875 4.96875 4.96875 4.96875 2.96875 4.96875 C 2.96875 5.636719 2.96875 6.300781 2.96875 6.96875 C 2.636719 6.96875 2.300781 6.96875 1.96875 6.96875 C 1.96875 7.636719 1.96875 8.300781 1.96875 8.96875 C 1.636719 8.96875 1.300781 8.96875 0.96875 8.96875 C 0.96875 9.636719 0.96875 10.300781 0.96875 10.96875 C 0.636719 10.96875 0.300781 10.96875 -0.03125 10.96875 C -0.03125 7.636719 -0.03125 4.300781 -0.03125 0.96875 Z M -0.03125 0.96875 "/>
<path style=" stroke:none;fill-rule:evenodd;fill:rgb(95.294118%,85.882354%,99.607843%);fill-opacity:1;" d="M 10.96875 4.96875 C 10.96875 5.300781 10.96875 5.636719 10.96875 5.96875 C 11.96875 5.96875 12.96875 5.96875 13.96875 5.96875 C 13.96875 6.96875 13.96875 7.96875 13.96875 8.96875 C 14.636719 8.96875 15.300781 8.96875 15.96875 8.96875 C 15.96875 9.636719 15.96875 10.300781 15.96875 10.96875 C 15.636719 10.96875 15.300781 10.96875 14.96875 10.96875 C 14.636719 10.96875 14.300781 10.96875 13.96875 10.96875 C 13.96875 11.300781 13.96875 11.636719 13.96875 11.96875 C 13.96875 12.96875 13.96875 13.96875 13.96875 14.96875 C 12.96875 14.96875 11.96875 14.96875 10.96875 14.96875 C 10.96875 14.636719 10.96875 14.300781 10.96875 13.96875 C 10.96875 13.636719 10.96875 13.300781 10.96875 12.96875 C 10.300781 12.96875 9.636719 12.96875 8.96875 12.96875 C 8.96875 13.300781 8.96875 13.636719 8.96875 13.96875 C 8.96875 14.300781 8.96875 14.636719 8.96875 14.96875 C 7.636719 14.96875 6.300781 14.96875 4.96875 14.96875 C 4.96875 14.636719 4.96875 14.300781 4.96875 13.96875 C 4.96875 12.96875 4.96875 11.96875 4.96875 10.96875 C 5.636719 10.96875 6.300781 10.96875 6.96875 10.96875 C 6.96875 10.300781 6.96875 9.636719 6.96875 8.96875 C 6.300781 8.96875 5.636719 8.96875 4.96875 8.96875 C 4.96875 7.96875 4.96875 6.96875 4.96875 5.96875 C 6.300781 5.96875 7.636719 5.96875 8.96875 5.96875 C 8.96875 5.636719 8.96875 5.300781 8.96875 4.96875 C 8.96875 4.636719 8.96875 4.300781 8.96875 3.96875 C 9.636719 3.96875 10.300781 3.96875 10.96875 3.96875 C 10.96875 4.300781 10.96875 4.636719 10.96875 4.96875 Z M 10.96875 4.96875 "/>
<path style=" stroke:none;fill-rule:evenodd;fill:rgb(69.01961%,35.294119%,90.980393%);fill-opacity:1;" d="M 8.96875 4.96875 C 8.96875 5.300781 8.96875 5.636719 8.96875 5.96875 C 7.636719 5.96875 6.300781 5.96875 4.96875 5.96875 C 4.96875 6.96875 4.96875 7.96875 4.96875 8.96875 C 5.636719 8.96875 6.300781 8.96875 6.96875 8.96875 C 6.96875 9.636719 6.96875 10.300781 6.96875 10.96875 C 6.300781 10.96875 5.636719 10.96875 4.96875 10.96875 C 4.96875 11.96875 4.96875 12.96875 4.96875 13.96875 C 3.300781 13.96875 1.636719 13.96875 -0.03125 13.96875 C -0.03125 12.96875 -0.03125 11.96875 -0.03125 10.96875 C 0.300781 10.96875 0.636719 10.96875 0.96875 10.96875 C 0.96875 10.300781 0.96875 9.636719 0.96875 8.96875 C 1.300781 8.96875 1.636719 8.96875 1.96875 8.96875 C 1.96875 8.300781 1.96875 7.636719 1.96875 6.96875 C 2.300781 6.96875 2.636719 6.96875 2.96875 6.96875 C 2.96875 6.300781 2.96875 5.636719 2.96875 4.96875 C 4.96875 4.96875 6.96875 4.96875 8.96875 4.96875 Z M 8.96875 4.96875 "/>
<path style=" stroke:none;fill-rule:evenodd;fill:rgb(69.01961%,35.294119%,90.980393%);fill-opacity:1;" d="M 10.96875 4.96875 C 11.96875 4.96875 12.96875 4.96875 13.96875 4.96875 C 14.636719 4.96875 15.300781 4.96875 15.96875 4.96875 C 15.96875 6.300781 15.96875 7.636719 15.96875 8.96875 C 15.300781 8.96875 14.636719 8.96875 13.96875 8.96875 C 13.96875 7.96875 13.96875 6.96875 13.96875 5.96875 C 12.96875 5.96875 11.96875 5.96875 10.96875 5.96875 C 10.96875 5.636719 10.96875 5.300781 10.96875 4.96875 Z M 10.96875 4.96875 "/>
<path style=" stroke:none;fill-rule:evenodd;fill:rgb(69.01961%,35.294119%,90.980393%);fill-opacity:1;" d="M 14.96875 10.96875 C 14.96875 11.300781 14.96875 11.636719 14.96875 11.96875 C 14.636719 11.96875 14.300781 11.96875 13.96875 11.96875 C 13.96875 11.636719 13.96875 11.300781 13.96875 10.96875 C 14.300781 10.96875 14.636719 10.96875 14.96875 10.96875 Z M 14.96875 10.96875 "/>
<path style=" stroke:none;fill-rule:evenodd;fill:rgb(69.01961%,35.294119%,90.980393%);fill-opacity:1;" d="M 10.96875 13.96875 C 10.300781 13.96875 9.636719 13.96875 8.96875 13.96875 C 8.96875 13.636719 8.96875 13.300781 8.96875 12.96875 C 9.636719 12.96875 10.300781 12.96875 10.96875 12.96875 C 10.96875 13.300781 10.96875 13.636719 10.96875 13.96875 Z M 10.96875 13.96875 "/>
</g>
</svg>
