<?xml version="1.0" encoding="UTF-8"?>
<svg xmlns="http://www.w3.org/2000/svg" xmlns:xlink="http://www.w3.org/1999/xlink" width="16px" height="16px" viewBox="0 0 16 16" version="1.1">
<g id="surface1">
<path style=" stroke:none;fill-rule:evenodd;fill:rgb(16.470589%,34.117648%,78.823531%);fill-opacity:1;" d="M 0 5 L 0 10 L 1 10 L 1 8 L 2 8 L 2 6 L 3 6 L 3 4 L 14 4 L 14 1 L 6 1 L 6 0 L 0 0 L 0 5 "/>
<path style=" stroke:none;fill-rule:evenodd;fill:rgb(86.274511%,92.54902%,98.823529%);fill-opacity:1;" d="M 13 4.5 L 13 5 L 12 5 L 12 6 L 11 6 L 11 7 L 10 7 L 10 8 L 9 8 L 9 7 L 7 7 L 7 6 L 6 6 L 6 5 L 5 5 L 5 6 L 6 6 L 6 7 L 7 7 L 7 8 L 8 8 L 8 10 L 7 10 L 7 11 L 6 11 L 6 12 L 5 12 L 5 13 L 6 13 L 6 12 L 7 12 L 7 11 L 9 11 L 9 10 L 10 10 L 10 11 L 11 11 L 11 12 L 12 12 L 12 13 L 13 13 L 13 14 L 15 14 L 15 4 L 13 4 L 13 4.5 M 12 7.5 L 12 8 L 11 8 L 11 10 L 12 10 L 12 11 L 13 11 L 13 7 L 12 7 L 12 7.5 "/>
<path style=" stroke:none;fill-rule:evenodd;fill:rgb(26.666668%,51.764709%,89.411765%);fill-opacity:1;" d="M 3 5 L 3 6 L 2 6 L 2 8 L 1 8 L 1 10 L 0 10 L 0 13 L 5 13 L 5 12 L 6 12 L 6 13 L 12 13 L 12 12 L 11 12 L 11 11 L 10 11 L 10 10 L 9 10 L 9 11 L 7 11 L 7 10 L 8 10 L 8 8 L 7 8 L 7 7 L 9 7 L 9 8 L 10 8 L 10 7 L 11 7 L 11 6 L 12 6 L 12 5 L 13 5 L 13 4 L 3 4 L 3 5 M 15 6.5 L 15 9 L 16 9 L 16 4 L 15 4 L 15 6.5 M 5 5.5 L 5 6 L 6 6 L 6 7 L 7 7 L 7 6 L 6 6 L 6 5 L 5 5 L 5 5.5 M 12 7.5 L 12 8 L 11 8 L 11 10 L 12 10 L 12 11 L 13 11 L 13 7 L 12 7 L 12 7.5 M 6 11.5 L 6 12 L 7 12 L 7 11 L 6 11 L 6 11.5 "/>
</g>
</svg>
