<?xml version="1.0" encoding="UTF-8"?>
<svg xmlns="http://www.w3.org/2000/svg" xmlns:xlink="http://www.w3.org/1999/xlink" width="16px" height="16px" viewBox="0 0 16 16" version="1.1">
<g id="surface1">
<path style=" stroke:none;fill-rule:nonzero;fill:rgb(100%,100%,100%);fill-opacity:1;" d="M 6 0 C 7.320312 0 8.640625 0 10 0 C 10 0.328125 10 0.660156 10 1 C 10.328125 1 10.660156 1 11 1 C 11 1.660156 11 2.320312 11 3 C 11.328125 3 11.660156 3 12 3 C 12 3.660156 12 4.320312 12 5 C 12.328125 5 12.660156 5 13 5 C 13 5.660156 13 6.320312 13 7 C 13.328125 7 13.660156 7 14 7 C 14 7.660156 14 8.320312 14 9 C 14.328125 9 14.660156 9 15 9 C 15 9.328125 15 9.660156 15 10 C 13.679688 10 12.359375 10 11 10 C 11 9.339844 11 8.679688 11 8 C 10.671875 8 10.339844 8 10 8 C 10 7.339844 10 6.679688 10 6 C 9.671875 6 9.339844 6 9 6 C 9 5.339844 9 4.679688 9 4 C 8.339844 4 7.679688 4 7 4 C 7 4.660156 7 5.320312 7 6 C 6.671875 6 6.339844 6 6 6 C 6 6.660156 6 7.320312 6 8 C 5.671875 8 5.339844 8 5 8 C 5 8.660156 5 9.320312 5 10 C 3.679688 10 2.359375 10 1 10 C 1 9.671875 1 9.339844 1 9 C 1.328125 9 1.660156 9 2 9 C 2 8.339844 2 7.679688 2 7 C 2.328125 7 2.660156 7 3 7 C 3 6.339844 3 5.679688 3 5 C 3.328125 5 3.660156 5 4 5 C 4 4.339844 4 3.679688 4 3 C 4.328125 3 4.660156 3 5 3 C 5 2.339844 5 1.679688 5 1 C 5.328125 1 5.660156 1 6 1 C 6 0.671875 6 0.339844 6 0 Z M 6 0 "/>
<path style=" stroke:none;fill-rule:nonzero;fill:rgb(100%,5.490196%,68.627453%);fill-opacity:1;" d="M 5 11 C 5.328125 11 5.660156 11 6 11 C 6 11.328125 6 11.660156 6 12 C 7.320312 12 8.640625 12 10 12 C 10 11.671875 10 11.339844 10 11 C 10.328125 11 10.660156 11 11 11 C 11 11.660156 11 12.320312 11 13 C 10.671875 13 10.339844 13 10 13 C 10 13.328125 10 13.660156 10 14 C 9.671875 14 9.339844 14 9 14 C 9 14.660156 9 15.320312 9 16 C 8.671875 16 8.339844 16 8 16 C 8 15.671875 8 15.339844 8 15 C 7.671875 15 7.339844 15 7 15 C 7 14.339844 7 13.679688 7 13 C 6.671875 13 6.339844 13 6 13 C 6 13.328125 6 13.660156 6 14 C 5.671875 14 5.339844 14 5 14 C 5 13.011719 5 12.019531 5 11 Z M 5 11 "/>
<path style=" stroke:none;fill-rule:nonzero;fill:rgb(100%,5.490196%,100%);fill-opacity:1;" d="M 10 11 C 10.328125 11 10.660156 11 11 11 C 11 11.660156 11 12.320312 11 13 C 10.671875 13 10.339844 13 10 13 C 10 13.328125 10 13.660156 10 14 C 9.671875 14 9.339844 14 9 14 C 9 13.339844 9 12.679688 9 12 C 9.328125 12 9.660156 12 10 12 C 10 11.671875 10 11.339844 10 11 Z M 10 11 "/>
<path style=" stroke:none;fill-rule:nonzero;fill:rgb(100%,21.176471%,41.960785%);fill-opacity:1;" d="M 5 11 C 5.328125 11 5.660156 11 6 11 C 6 11.328125 6 11.660156 6 12 C 6.328125 12 6.660156 12 7 12 C 7 12.328125 7 12.660156 7 13 C 6.671875 13 6.339844 13 6 13 C 6 13.328125 6 13.660156 6 14 C 5.671875 14 5.339844 14 5 14 C 5 13.011719 5 12.019531 5 11 Z M 5 11 "/>
</g>
</svg>
