<?xml version="1.0" encoding="UTF-8"?>
<svg xmlns="http://www.w3.org/2000/svg" xmlns:xlink="http://www.w3.org/1999/xlink" width="16px" height="16px" viewBox="0 0 16 16" version="1.1">
<g id="surface1">
<path style=" stroke:none;fill-rule:nonzero;fill:rgb(98.431373%,94.117647%,87.450981%);fill-opacity:1;" d="M 6 1 C 7.320312 1 8.640625 1 10 1 C 10 1.328125 10 1.660156 10 2 C 10.660156 2 11.320312 2 12 2 C 12 2.328125 12 2.660156 12 3 C 12.328125 3 12.660156 3 13 3 C 13 3.328125 13 3.660156 13 4 C 13.328125 4 13.660156 4 14 4 C 14 4.328125 14 4.660156 14 5 C 14.328125 5 14.660156 5 15 5 C 15 5.660156 15 6.320312 15 7 C 15.328125 7 15.660156 7 16 7 C 16 8.320312 16 9.640625 16 11 C 15.671875 11 15.339844 11 15 11 C 15 11.328125 15 11.660156 15 12 C 14.671875 12 14.339844 12 14 12 C 14 12.328125 14 12.660156 14 13 C 13.671875 13 13.339844 13 13 13 C 13 13.328125 13 13.660156 13 14 C 10.03125 14 7.058594 14 4 14 C 4 13.671875 4 13.339844 4 13 C 3.671875 13 3.339844 13 3 13 C 3 12.671875 3 12.339844 3 12 C 2.671875 12 2.339844 12 2 12 C 2 11.671875 2 11.339844 2 11 C 1.671875 11 1.339844 11 1 11 C 1 10.671875 1 10.339844 1 10 C 0.671875 10 0.339844 10 0 10 C 0 8.679688 0 7.359375 0 6 C 0.328125 6 0.660156 6 1 6 C 1 5.671875 1 5.339844 1 5 C 1.328125 5 1.660156 5 2 5 C 2 4.671875 2 4.339844 2 4 C 2.328125 4 2.660156 4 3 4 C 3 3.671875 3 3.339844 3 3 C 3.328125 3 3.660156 3 4 3 C 4 2.671875 4 2.339844 4 2 C 4.660156 2 5.320312 2 6 2 C 6 1.671875 6 1.339844 6 1 Z M 6 1 "/>
<path style=" stroke:none;fill-rule:nonzero;fill:rgb(0%,0%,0%);fill-opacity:1;" d="M 15 7 C 15.328125 7 15.660156 7 16 7 C 16 8.320312 16 9.640625 16 11 C 15.671875 11 15.339844 11 15 11 C 15 11.328125 15 11.660156 15 12 C 14.671875 12 14.339844 12 14 12 C 14 12.328125 14 12.660156 14 13 C 13.671875 13 13.339844 13 13 13 C 13 13.328125 13 13.660156 13 14 C 10.03125 14 7.058594 14 4 14 C 4 13.671875 4 13.339844 4 13 C 6.640625 13 9.28125 13 12 13 C 12 12.671875 12 12.339844 12 12 C 12.328125 12 12.660156 12 13 12 C 13 11.671875 13 11.339844 13 11 C 13.328125 11 13.660156 11 14 11 C 14 10.671875 14 10.339844 14 10 C 14.328125 10 14.660156 10 15 10 C 15 9.011719 15 8.019531 15 7 Z M 15 7 "/>
<path style=" stroke:none;fill-rule:nonzero;fill:rgb(80.000001%,74.509805%,66.274512%);fill-opacity:1;" d="M 6 1 C 7.320312 1 8.640625 1 10 1 C 10 1.328125 10 1.660156 10 2 C 10.660156 2 11.320312 2 12 2 C 12 2.328125 12 2.660156 12 3 C 11.339844 3 10.679688 3 10 3 C 10 3.328125 10 3.660156 10 4 C 9.339844 4 8.679688 4 8 4 C 8 3.671875 8 3.339844 8 3 C 7.671875 3 7.339844 3 7 3 C 7 2.671875 7 2.339844 7 2 C 6.671875 2 6.339844 2 6 2 C 6 1.671875 6 1.339844 6 1 Z M 6 1 "/>
<path style=" stroke:none;fill-rule:nonzero;fill:rgb(100%,71.764708%,80.784315%);fill-opacity:1;" d="M 4 6 C 4.660156 6 5.320312 6 6 6 C 6 6.660156 6 7.320312 6 8 C 5.671875 8 5.339844 8 5 8 C 5 8.328125 5 8.660156 5 9 C 4.339844 9 3.679688 9 3 9 C 3 8.339844 3 7.679688 3 7 C 3.328125 7 3.660156 7 4 7 C 4 6.671875 4 6.339844 4 6 Z M 4 6 "/>
<path style=" stroke:none;fill-rule:nonzero;fill:rgb(85.882354%,4.313726%,9.803922%);fill-opacity:1;" d="M 6 9 C 6.988281 9 7.980469 9 9 9 C 9 9.328125 9 9.660156 9 10 C 8.671875 10 8.339844 10 8 10 C 8 10.328125 8 10.660156 8 11 C 7.671875 11 7.339844 11 7 11 C 7 10.671875 7 10.339844 7 10 C 6.671875 10 6.339844 10 6 10 C 6 9.671875 6 9.339844 6 9 Z M 6 9 "/>
<path style=" stroke:none;fill-rule:nonzero;fill:rgb(0%,0%,0%);fill-opacity:1;" d="M 0 6 C 0.328125 6 0.660156 6 1 6 C 1 7.320312 1 8.640625 1 10 C 0.671875 10 0.339844 10 0 10 C 0 8.679688 0 7.359375 0 6 Z M 0 6 "/>
<path style=" stroke:none;fill-rule:nonzero;fill:rgb(0%,0%,0%);fill-opacity:1;" d="M 6 1 C 7.320312 1 8.640625 1 10 1 C 10 1.328125 10 1.660156 10 2 C 8.679688 2 7.359375 2 6 2 C 6 1.671875 6 1.339844 6 1 Z M 6 1 "/>
<path style=" stroke:none;fill-rule:nonzero;fill:rgb(80.000001%,74.509805%,66.274512%);fill-opacity:1;" d="M 9 12 C 9.988281 12 10.980469 12 12 12 C 12 12.328125 12 12.660156 12 13 C 11.011719 13 10.019531 13 9 13 C 9 12.671875 9 12.339844 9 12 Z M 9 12 "/>
<path style=" stroke:none;fill-rule:nonzero;fill:rgb(0%,0%,0%);fill-opacity:1;" d="M 10 6 C 10.660156 6 11.320312 6 12 6 C 12 6.660156 12 7.320312 12 8 C 11.671875 8 11.339844 8 11 8 C 11 7.671875 11 7.339844 11 7 C 10.671875 7 10.339844 7 10 7 C 10 6.671875 10 6.339844 10 6 Z M 10 6 "/>
<path style=" stroke:none;fill-rule:nonzero;fill:rgb(0%,0%,0%);fill-opacity:1;" d="M 4 6 C 4.660156 6 5.320312 6 6 6 C 6 6.660156 6 7.320312 6 8 C 5.671875 8 5.339844 8 5 8 C 5 7.671875 5 7.339844 5 7 C 4.671875 7 4.339844 7 4 7 C 4 6.671875 4 6.339844 4 6 Z M 4 6 "/>
<path style=" stroke:none;fill-rule:nonzero;fill:rgb(100%,71.764708%,80.784315%);fill-opacity:1;" d="M 10 8 C 10.660156 8 11.320312 8 12 8 C 12 8.328125 12 8.660156 12 9 C 11.339844 9 10.679688 9 10 9 C 10 8.671875 10 8.339844 10 8 Z M 10 8 "/>
<path style=" stroke:none;fill-rule:nonzero;fill:rgb(0%,0%,0%);fill-opacity:1;" d="M 14 5 C 14.328125 5 14.660156 5 15 5 C 15 5.660156 15 6.320312 15 7 C 14.671875 7 14.339844 7 14 7 C 14 6.339844 14 5.679688 14 5 Z M 14 5 "/>
<path style=" stroke:none;fill-rule:nonzero;fill:rgb(0%,0%,0%);fill-opacity:1;" d="M 10 2 C 10.660156 2 11.320312 2 12 2 C 12 2.328125 12 2.660156 12 3 C 11.339844 3 10.679688 3 10 3 C 10 2.671875 10 2.339844 10 2 Z M 10 2 "/>
<path style=" stroke:none;fill-rule:nonzero;fill:rgb(0%,0%,0%);fill-opacity:1;" d="M 4 2 C 4.660156 2 5.320312 2 6 2 C 6 2.328125 6 2.660156 6 3 C 5.339844 3 4.679688 3 4 3 C 4 2.671875 4 2.339844 4 2 Z M 4 2 "/>
<path style=" stroke:none;fill-rule:nonzero;fill:rgb(0%,0%,0%);fill-opacity:1;" d="M 3 12 C 3.328125 12 3.660156 12 4 12 C 4 12.328125 4 12.660156 4 13 C 3.671875 13 3.339844 13 3 13 C 3 12.671875 3 12.339844 3 12 Z M 3 12 "/>
<path style=" stroke:none;fill-rule:nonzero;fill:rgb(80.000001%,74.509805%,66.274512%);fill-opacity:1;" d="M 12 11 C 12.328125 11 12.660156 11 13 11 C 13 11.328125 13 11.660156 13 12 C 12.671875 12 12.339844 12 12 12 C 12 11.671875 12 11.339844 12 11 Z M 12 11 "/>
<path style=" stroke:none;fill-rule:nonzero;fill:rgb(0%,0%,0%);fill-opacity:1;" d="M 2 11 C 2.328125 11 2.660156 11 3 11 C 3 11.328125 3 11.660156 3 12 C 2.671875 12 2.339844 12 2 12 C 2 11.671875 2 11.339844 2 11 Z M 2 11 "/>
<path style=" stroke:none;fill-rule:nonzero;fill:rgb(80.000001%,74.509805%,66.274512%);fill-opacity:1;" d="M 13 10 C 13.328125 10 13.660156 10 14 10 C 14 10.328125 14 10.660156 14 11 C 13.671875 11 13.339844 11 13 11 C 13 10.671875 13 10.339844 13 10 Z M 13 10 "/>
<path style=" stroke:none;fill-rule:nonzero;fill:rgb(0%,0%,0%);fill-opacity:1;" d="M 7 10 C 7.328125 10 7.660156 10 8 10 C 8 10.328125 8 10.660156 8 11 C 7.671875 11 7.339844 11 7 11 C 7 10.671875 7 10.339844 7 10 Z M 7 10 "/>
<path style=" stroke:none;fill-rule:nonzero;fill:rgb(0%,0%,0%);fill-opacity:1;" d="M 1 10 C 1.328125 10 1.660156 10 2 10 C 2 10.328125 2 10.660156 2 11 C 1.671875 11 1.339844 11 1 11 C 1 10.671875 1 10.339844 1 10 Z M 1 10 "/>
<path style=" stroke:none;fill-rule:nonzero;fill:rgb(80.000001%,74.509805%,66.274512%);fill-opacity:1;" d="M 14 9 C 14.328125 9 14.660156 9 15 9 C 15 9.328125 15 9.660156 15 10 C 14.671875 10 14.339844 10 14 10 C 14 9.671875 14 9.339844 14 9 Z M 14 9 "/>
<path style=" stroke:none;fill-rule:nonzero;fill:rgb(0%,0%,0%);fill-opacity:1;" d="M 6 9 C 6.328125 9 6.660156 9 7 9 C 7 9.328125 7 9.660156 7 10 C 6.671875 10 6.339844 10 6 10 C 6 9.671875 6 9.339844 6 9 Z M 6 9 "/>
<path style=" stroke:none;fill-rule:nonzero;fill:rgb(100%,100%,100%);fill-opacity:1;" d="M 10 7 C 10.328125 7 10.660156 7 11 7 C 11 7.328125 11 7.660156 11 8 C 10.671875 8 10.339844 8 10 8 C 10 7.671875 10 7.339844 10 7 Z M 10 7 "/>
<path style=" stroke:none;fill-rule:nonzero;fill:rgb(0%,0%,0%);fill-opacity:1;" d="M 9 7 C 9.328125 7 9.660156 7 10 7 C 10 7.328125 10 7.660156 10 8 C 9.671875 8 9.339844 8 9 8 C 9 7.671875 9 7.339844 9 7 Z M 9 7 "/>
<path style=" stroke:none;fill-rule:nonzero;fill:rgb(100%,100%,100%);fill-opacity:1;" d="M 4 7 C 4.328125 7 4.660156 7 5 7 C 5 7.328125 5 7.660156 5 8 C 4.671875 8 4.339844 8 4 8 C 4 7.671875 4 7.339844 4 7 Z M 4 7 "/>
<path style=" stroke:none;fill-rule:nonzero;fill:rgb(0%,0%,0%);fill-opacity:1;" d="M 3 7 C 3.328125 7 3.660156 7 4 7 C 4 7.328125 4 7.660156 4 8 C 3.671875 8 3.339844 8 3 8 C 3 7.671875 3 7.339844 3 7 Z M 3 7 "/>
<path style=" stroke:none;fill-rule:nonzero;fill:rgb(100%,100%,100%);fill-opacity:1;" d="M 9 6 C 9.328125 6 9.660156 6 10 6 C 10 6.328125 10 6.660156 10 7 C 9.671875 7 9.339844 7 9 7 C 9 6.671875 9 6.339844 9 6 Z M 9 6 "/>
<path style=" stroke:none;fill-rule:nonzero;fill:rgb(100%,100%,100%);fill-opacity:1;" d="M 3 6 C 3.328125 6 3.660156 6 4 6 C 4 6.328125 4 6.660156 4 7 C 3.671875 7 3.339844 7 3 7 C 3 6.671875 3 6.339844 3 6 Z M 3 6 "/>
<path style=" stroke:none;fill-rule:nonzero;fill:rgb(100%,99.607843%,98.823529%);fill-opacity:1;" d="M 1 6 C 1.328125 6 1.660156 6 2 6 C 2 6.328125 2 6.660156 2 7 C 1.671875 7 1.339844 7 1 7 C 1 6.671875 1 6.339844 1 6 Z M 1 6 "/>
<path style=" stroke:none;fill-rule:nonzero;fill:rgb(0%,0%,0%);fill-opacity:1;" d="M 1 5 C 1.328125 5 1.660156 5 2 5 C 2 5.328125 2 5.660156 2 6 C 1.671875 6 1.339844 6 1 6 C 1 5.671875 1 5.339844 1 5 Z M 1 5 "/>
<path style=" stroke:none;fill-rule:nonzero;fill:rgb(0%,0%,0%);fill-opacity:1;" d="M 13 4 C 13.328125 4 13.660156 4 14 4 C 14 4.328125 14 4.660156 14 5 C 13.671875 5 13.339844 5 13 5 C 13 4.671875 13 4.339844 13 4 Z M 13 4 "/>
<path style=" stroke:none;fill-rule:nonzero;fill:rgb(80.000001%,74.509805%,66.274512%);fill-opacity:1;" d="M 6 4 C 6.328125 4 6.660156 4 7 4 C 7 4.328125 7 4.660156 7 5 C 6.671875 5 6.339844 5 6 5 C 6 4.671875 6 4.339844 6 4 Z M 6 4 "/>
<path style=" stroke:none;fill-rule:nonzero;fill:rgb(0%,0%,0%);fill-opacity:1;" d="M 2 4 C 2.328125 4 2.660156 4 3 4 C 3 4.328125 3 4.660156 3 5 C 2.671875 5 2.339844 5 2 5 C 2 4.671875 2 4.339844 2 4 Z M 2 4 "/>
<path style=" stroke:none;fill-rule:nonzero;fill:rgb(0%,0%,0%);fill-opacity:1;" d="M 12 3 C 12.328125 3 12.660156 3 13 3 C 13 3.328125 13 3.660156 13 4 C 12.671875 4 12.339844 4 12 4 C 12 3.671875 12 3.339844 12 3 Z M 12 3 "/>
<path style=" stroke:none;fill-rule:nonzero;fill:rgb(100%,99.607843%,98.823529%);fill-opacity:1;" d="M 4 3 C 4.328125 3 4.660156 3 5 3 C 5 3.328125 5 3.660156 5 4 C 4.671875 4 4.339844 4 4 4 C 4 3.671875 4 3.339844 4 3 Z M 4 3 "/>
<path style=" stroke:none;fill-rule:nonzero;fill:rgb(10.980392%,10.980392%,10.980392%);fill-opacity:1;" d="M 3 3 C 3.328125 3 3.660156 3 4 3 C 4 3.328125 4 3.660156 4 4 C 3.671875 4 3.339844 4 3 4 C 3 3.671875 3 3.339844 3 3 Z M 3 3 "/>
<path style=" stroke:none;fill-rule:nonzero;fill:rgb(98.431373%,94.117647%,87.450981%);fill-opacity:1;" d="M 9 2 C 9.328125 2 9.660156 2 10 2 C 10 2.328125 10 2.660156 10 3 C 9.671875 3 9.339844 3 9 3 C 9 2.671875 9 2.339844 9 2 Z M 9 2 "/>
</g>
</svg>
