<?xml version="1.0" encoding="UTF-8"?>
<svg xmlns="http://www.w3.org/2000/svg" xmlns:xlink="http://www.w3.org/1999/xlink" width="16px" height="16px" viewBox="0 0 16 16" version="1.1">
<g id="surface1">
<path style=" stroke:none;fill-rule:nonzero;fill:rgb(95.294118%,60.000002%,100%);fill-opacity:1;" d="M 5 0 C 6.980469 0 8.960938 0 11 0 C 11 0.328125 11 0.660156 11 1 C 11.660156 1 12.320312 1 13 1 C 13 1.328125 13 1.660156 13 2 C 13.328125 2 13.660156 2 14 2 C 14 2.328125 14 2.660156 14 3 C 14.328125 3 14.660156 3 15 3 C 15 3.660156 15 4.320312 15 5 C 15.328125 5 15.660156 5 16 5 C 16 6.980469 16 8.960938 16 11 C 15.671875 11 15.339844 11 15 11 C 15 11.660156 15 12.320312 15 13 C 14.671875 13 14.339844 13 14 13 C 14 13.328125 14 13.660156 14 14 C 13.671875 14 13.339844 14 13 14 C 13 14.328125 13 14.660156 13 15 C 12.339844 15 11.679688 15 11 15 C 11 15.328125 11 15.660156 11 16 C 9.019531 16 7.039062 16 5 16 C 5 15.671875 5 15.339844 5 15 C 4.339844 15 3.679688 15 3 15 C 3 14.671875 3 14.339844 3 14 C 2.671875 14 2.339844 14 2 14 C 2 14.660156 2 15.320312 2 16 C 1.671875 16 1.339844 16 1 16 C 1 14.679688 1 13.359375 1 12 C 2.320312 12 3.640625 12 5 12 C 5 12.328125 5 12.660156 5 13 C 4.671875 13 4.339844 13 4 13 C 4 13.328125 4 13.660156 4 14 C 4.660156 14 5.320312 14 6 14 C 6 14.328125 6 14.660156 6 15 C 7.320312 15 8.640625 15 10 15 C 10 14.671875 10 14.339844 10 14 C 10.660156 14 11.320312 14 12 14 C 12 13.671875 12 13.339844 12 13 C 12.328125 13 12.660156 13 13 13 C 13 12.671875 13 12.339844 13 12 C 13.328125 12 13.660156 12 14 12 C 14 11.339844 14 10.679688 14 10 C 14.328125 10 14.660156 10 15 10 C 15 8.679688 15 7.359375 15 6 C 14.671875 6 14.339844 6 14 6 C 14 5.339844 14 4.679688 14 4 C 13.671875 4 13.339844 4 13 4 C 13 3.671875 13 3.339844 13 3 C 12.671875 3 12.339844 3 12 3 C 12 2.671875 12 2.339844 12 2 C 11.339844 2 10.679688 2 10 2 C 10 1.671875 10 1.339844 10 1 C 8.679688 1 7.359375 1 6 1 C 6 1.328125 6 1.660156 6 2 C 5.339844 2 4.679688 2 4 2 C 4 2.328125 4 2.660156 4 3 C 3.671875 3 3.339844 3 3 3 C 3 3.328125 3 3.660156 3 4 C 2.671875 4 2.339844 4 2 4 C 2 4.660156 2 5.320312 2 6 C 1.671875 6 1.339844 6 1 6 C 1 6.988281 1 7.980469 1 9 C 0.671875 9 0.339844 9 0 9 C 0 7.679688 0 6.359375 0 5 C 0.328125 5 0.660156 5 1 5 C 1 4.339844 1 3.679688 1 3 C 1.328125 3 1.660156 3 2 3 C 2 2.671875 2 2.339844 2 2 C 2.328125 2 2.660156 2 3 2 C 3 1.671875 3 1.339844 3 1 C 3.660156 1 4.320312 1 5 1 C 5 0.671875 5 0.339844 5 0 Z M 5 0 "/>
<path style=" stroke:none;fill-rule:nonzero;fill:rgb(95.294118%,60.000002%,100%);fill-opacity:1;" d="M 7 2 C 7.328125 2 7.660156 2 8 2 C 8 3.980469 8 5.960938 8 8 C 9.320312 8 10.640625 8 12 8 C 12 8.328125 12 8.660156 12 9 C 10.351562 9 8.699219 9 7 9 C 7 6.691406 7 4.378906 7 2 Z M 7 2 "/>
</g>
</svg>
