<?xml version="1.0" encoding="UTF-8"?>
<svg xmlns="http://www.w3.org/2000/svg" xmlns:xlink="http://www.w3.org/1999/xlink" width="16px" height="16px" viewBox="0 0 16 16" version="1.1">
<g id="surface1">
<path style=" stroke:none;fill-rule:nonzero;fill:rgb(59.215689%,8.627451%,96.470588%);fill-opacity:1;" d="M 6.5625 6 C 7.492188 6 8.417969 6 9.375 6 C 9.375 6.328125 9.375 6.660156 9.375 7 C 9.992188 7 10.613281 7 11.25 7 C 11.25 7.660156 11.25 8.320312 11.25 9 C 11.558594 9 11.867188 9 12.1875 9 C 12.1875 9.660156 12.1875 10.320312 12.1875 11 C 11.878906 11 11.570312 11 11.25 11 C 11.25 11.660156 11.25 12.320312 11.25 13 C 10.632812 13 10.011719 13 9.375 13 C 9.375 13.328125 9.375 13.660156 9.375 14 C 8.445312 14 7.519531 14 6.5625 14 C 6.5625 13.671875 6.5625 13.339844 6.5625 13 C 5.945312 13 5.324219 13 4.6875 13 C 4.6875 12.339844 4.6875 11.679688 4.6875 11 C 4.378906 11 4.070312 11 3.75 11 C 3.75 10.339844 3.75 9.679688 3.75 9 C 4.058594 9 4.367188 9 4.6875 9 C 4.6875 8.339844 4.6875 7.679688 4.6875 7 C 5.304688 7 5.925781 7 6.5625 7 C 6.5625 6.671875 6.5625 6.339844 6.5625 6 Z M 6.5625 8 C 6.5625 8.328125 6.5625 8.660156 6.5625 9 C 6.253906 9 5.945312 9 5.625 9 C 5.625 9.660156 5.625 10.320312 5.625 11 C 5.933594 11 6.242188 11 6.5625 11 C 6.5625 11.328125 6.5625 11.660156 6.5625 12 C 7.492188 12 8.417969 12 9.375 12 C 9.375 11.671875 9.375 11.339844 9.375 11 C 9.683594 11 9.992188 11 10.3125 11 C 10.3125 10.339844 10.3125 9.679688 10.3125 9 C 10.003906 9 9.695312 9 9.375 9 C 9.375 8.671875 9.375 8.339844 9.375 8 C 8.445312 8 7.519531 8 6.5625 8 Z M 6.5625 8 "/>
<path style=" stroke:none;fill-rule:nonzero;fill:rgb(59.215689%,8.627451%,96.470588%);fill-opacity:1;" d="M 2.8125 0 C 5.289062 0 7.761719 0 10.3125 0 C 10.3125 0.328125 10.3125 0.660156 10.3125 1 C 10.621094 1 10.929688 1 11.25 1 C 11.25 1.328125 11.25 1.660156 11.25 2 C 11.558594 2 11.867188 2 12.1875 2 C 12.1875 2.328125 12.1875 2.660156 12.1875 3 C 12.496094 3 12.804688 3 13.125 3 C 13.125 3.328125 13.125 3.660156 13.125 4 C 13.433594 4 13.742188 4 14.0625 4 C 14.0625 7.628906 14.0625 11.261719 14.0625 15 C 13.753906 15 13.445312 15 13.125 15 C 13.125 11.699219 13.125 8.398438 13.125 5 C 11.886719 5 10.648438 5 9.375 5 C 9.375 3.679688 9.375 2.359375 9.375 1 C 7.210938 1 5.042969 1 2.8125 1 C 2.8125 0.671875 2.8125 0.339844 2.8125 0 Z M 2.8125 0 "/>
<path style=" stroke:none;fill-rule:nonzero;fill:rgb(59.215689%,8.627451%,96.470588%);fill-opacity:1;" d="M 1.875 1 C 2.183594 1 2.492188 1 2.8125 1 C 2.8125 5.621094 2.8125 10.238281 2.8125 15 C 2.503906 15 2.195312 15 1.875 15 C 1.875 10.378906 1.875 5.761719 1.875 1 Z M 1.875 1 "/>
<path style=" stroke:none;fill-rule:nonzero;fill:rgb(59.215689%,8.627451%,96.470588%);fill-opacity:1;" d="M 2.8125 15 C 6.214844 15 9.617188 15 13.125 15 C 13.125 15.328125 13.125 15.660156 13.125 16 C 9.722656 16 6.320312 16 2.8125 16 C 2.8125 15.671875 2.8125 15.339844 2.8125 15 Z M 2.8125 15 "/>
</g>
</svg>
