<?xml version="1.0" encoding="UTF-8"?>
<svg xmlns="http://www.w3.org/2000/svg" xmlns:xlink="http://www.w3.org/1999/xlink" width="16px" height="16px" viewBox="0 0 16 16" version="1.1">
<g id="surface1">
<path style=" stroke:none;fill-rule:nonzero;fill:rgb(54.509807%,3.137255%,67.450982%);fill-opacity:1;" d="M 5 0 C 7.640625 0 10.28125 0 13 0 C 13 0.328125 13 0.660156 13 1 C 13.660156 1 14.320312 1 15 1 C 15 1.988281 15 2.980469 15 4 C 14.339844 4 13.679688 4 13 4 C 13 4.328125 13 4.660156 13 5 C 12.339844 5 11.679688 5 11 5 C 11 4.671875 11 4.339844 11 4 C 9.679688 4 8.359375 4 7 4 C 7 4.328125 7 4.660156 7 5 C 6.671875 5 6.339844 5 6 5 C 6 5.660156 6 6.320312 6 7 C 5.671875 7 5.339844 7 5 7 C 5 7.660156 5 8.320312 5 9 C 5.328125 9 5.660156 9 6 9 C 6 9.328125 6 9.660156 6 10 C 6.328125 10 6.660156 10 7 10 C 7 10.328125 7 10.660156 7 11 C 7.328125 11 7.660156 11 8 11 C 8 11.328125 8 11.660156 8 12 C 9.320312 12 10.640625 12 12 12 C 12 11.671875 12 11.339844 12 11 C 12.988281 11 13.980469 11 15 11 C 15 11.988281 15 12.980469 15 14 C 14.671875 14 14.339844 14 14 14 C 14 14.328125 14 14.660156 14 15 C 13.339844 15 12.679688 15 12 15 C 12 15.328125 12 15.660156 12 16 C 10.019531 16 8.039062 16 6 16 C 6 15.671875 6 15.339844 6 15 C 5.339844 15 4.679688 15 4 15 C 4 14.671875 4 14.339844 4 14 C 3.671875 14 3.339844 14 3 14 C 3 13.671875 3 13.339844 3 13 C 2.671875 13 2.339844 13 2 13 C 2 12.339844 2 11.679688 2 11 C 1.671875 11 1.339844 11 1 11 C 1 9.019531 1 7.039062 1 5 C 1.328125 5 1.660156 5 2 5 C 2 4.339844 2 3.679688 2 3 C 2.328125 3 2.660156 3 3 3 C 3 2.671875 3 2.339844 3 2 C 3.328125 2 3.660156 2 4 2 C 4 1.671875 4 1.339844 4 1 C 4.328125 1 4.660156 1 5 1 C 5 0.671875 5 0.339844 5 0 Z M 5 0 "/>
<path style=" stroke:none;fill-rule:nonzero;fill:rgb(65.882355%,17.254902%,78.039217%);fill-opacity:1;" d="M 9 6 C 9.328125 6 9.660156 6 10 6 C 10 6.328125 10 6.660156 10 7 C 10.328125 7 10.660156 7 11 7 C 11 6.671875 11 6.339844 11 6 C 11.328125 6 11.660156 6 12 6 C 12 6.328125 12 6.660156 12 7 C 12.328125 7 12.660156 7 13 7 C 13 7.328125 13 7.660156 13 8 C 12.671875 8 12.339844 8 12 8 C 12 8.328125 12 8.660156 12 9 C 12.328125 9 12.660156 9 13 9 C 13 9.328125 13 9.660156 13 10 C 12.671875 10 12.339844 10 12 10 C 12 10.328125 12 10.660156 12 11 C 11.671875 11 11.339844 11 11 11 C 11 10.671875 11 10.339844 11 10 C 10.671875 10 10.339844 10 10 10 C 10 10.328125 10 10.660156 10 11 C 9.671875 11 9.339844 11 9 11 C 9 10.671875 9 10.339844 9 10 C 8.671875 10 8.339844 10 8 10 C 8 9.671875 8 9.339844 8 9 C 8.328125 9 8.660156 9 9 9 C 9 8.671875 9 8.339844 9 8 C 8.671875 8 8.339844 8 8 8 C 8 7.671875 8 7.339844 8 7 C 8.328125 7 8.660156 7 9 7 C 9 6.671875 9 6.339844 9 6 Z M 10 8 C 10 8.328125 10 8.660156 10 9 C 10.328125 9 10.660156 9 11 9 C 11 8.671875 11 8.339844 11 8 C 10.671875 8 10.339844 8 10 8 Z M 10 8 "/>
<path style=" stroke:none;fill-rule:nonzero;fill:rgb(65.882355%,17.254902%,78.039217%);fill-opacity:1;" d="M 5 0 C 7.640625 0 10.28125 0 13 0 C 13 0.328125 13 0.660156 13 1 C 10.359375 1 7.71875 1 5 1 C 5 0.671875 5 0.339844 5 0 Z M 5 0 "/>
<path style=" stroke:none;fill-rule:nonzero;fill:rgb(45.490196%,0%,56.862748%);fill-opacity:1;" d="M 6 15 C 7.980469 15 9.960938 15 12 15 C 12 15.328125 12 15.660156 12 16 C 10.019531 16 8.039062 16 6 16 C 6 15.671875 6 15.339844 6 15 Z M 6 15 "/>
<path style=" stroke:none;fill-rule:nonzero;fill:rgb(45.490196%,0%,56.862748%);fill-opacity:1;" d="M 7 3 C 8.320312 3 9.640625 3 11 3 C 11 3.328125 11 3.660156 11 4 C 9.679688 4 8.359375 4 7 4 C 7 3.671875 7 3.339844 7 3 Z M 7 3 "/>
<path style=" stroke:none;fill-rule:nonzero;fill:rgb(45.490196%,0%,56.862748%);fill-opacity:1;" d="M 12 14 C 12.660156 14 13.320312 14 14 14 C 14 14.328125 14 14.660156 14 15 C 13.339844 15 12.679688 15 12 15 C 12 14.671875 12 14.339844 12 14 Z M 12 14 "/>
<path style=" stroke:none;fill-rule:nonzero;fill:rgb(45.490196%,0%,56.862748%);fill-opacity:1;" d="M 4 14 C 4.660156 14 5.320312 14 6 14 C 6 14.328125 6 14.660156 6 15 C 5.339844 15 4.679688 15 4 15 C 4 14.671875 4 14.339844 4 14 Z M 4 14 "/>
<path style=" stroke:none;fill-rule:nonzero;fill:rgb(65.882355%,17.254902%,78.039217%);fill-opacity:1;" d="M 13 11 C 13.660156 11 14.320312 11 15 11 C 15 11.328125 15 11.660156 15 12 C 14.339844 12 13.679688 12 13 12 C 13 11.671875 13 11.339844 13 11 Z M 13 11 "/>
<path style=" stroke:none;fill-rule:nonzero;fill:rgb(45.490196%,0%,56.862748%);fill-opacity:1;" d="M 5 5 C 5.328125 5 5.660156 5 6 5 C 6 5.660156 6 6.320312 6 7 C 5.671875 7 5.339844 7 5 7 C 5 6.339844 5 5.679688 5 5 Z M 5 5 "/>
<path style=" stroke:none;fill-rule:nonzero;fill:rgb(45.490196%,0%,56.862748%);fill-opacity:1;" d="M 11 4 C 11.660156 4 12.320312 4 13 4 C 13 4.328125 13 4.660156 13 5 C 12.339844 5 11.679688 5 11 5 C 11 4.671875 11 4.339844 11 4 Z M 11 4 "/>
<path style=" stroke:none;fill-rule:nonzero;fill:rgb(65.882355%,17.254902%,78.039217%);fill-opacity:1;" d="M 13 1 C 13.660156 1 14.320312 1 15 1 C 15 1.328125 15 1.660156 15 2 C 14.339844 2 13.679688 2 13 2 C 13 1.671875 13 1.339844 13 1 Z M 13 1 "/>
<path style=" stroke:none;fill-rule:nonzero;fill:rgb(45.490196%,0%,56.862748%);fill-opacity:1;" d="M 3 13 C 3.328125 13 3.660156 13 4 13 C 4 13.328125 4 13.660156 4 14 C 3.671875 14 3.339844 14 3 14 C 3 13.671875 3 13.339844 3 13 Z M 3 13 "/>
<path style=" stroke:none;fill-rule:nonzero;fill:rgb(45.490196%,0%,56.862748%);fill-opacity:1;" d="M 2 12 C 2.328125 12 2.660156 12 3 12 C 3 12.328125 3 12.660156 3 13 C 2.671875 13 2.339844 13 2 13 C 2 12.671875 2 12.339844 2 12 Z M 2 12 "/>
<path style=" stroke:none;fill-rule:nonzero;fill:rgb(65.882355%,17.254902%,78.039217%);fill-opacity:1;" d="M 7 11 C 7.328125 11 7.660156 11 8 11 C 8 11.328125 8 11.660156 8 12 C 7.671875 12 7.339844 12 7 12 C 7 11.671875 7 11.339844 7 11 Z M 7 11 "/>
<path style=" stroke:none;fill-rule:nonzero;fill:rgb(45.490196%,0%,56.862748%);fill-opacity:1;" d="M 11 10 C 11.328125 10 11.660156 10 12 10 C 12 10.328125 12 10.660156 12 11 C 11.671875 11 11.339844 11 11 11 C 11 10.671875 11 10.339844 11 10 Z M 11 10 "/>
<path style=" stroke:none;fill-rule:nonzero;fill:rgb(45.490196%,0%,56.862748%);fill-opacity:1;" d="M 9 10 C 9.328125 10 9.660156 10 10 10 C 10 10.328125 10 10.660156 10 11 C 9.671875 11 9.339844 11 9 11 C 9 10.671875 9 10.339844 9 10 Z M 9 10 "/>
<path style=" stroke:none;fill-rule:nonzero;fill:rgb(65.882355%,17.254902%,78.039217%);fill-opacity:1;" d="M 6 10 C 6.328125 10 6.660156 10 7 10 C 7 10.328125 7 10.660156 7 11 C 6.671875 11 6.339844 11 6 11 C 6 10.671875 6 10.339844 6 10 Z M 6 10 "/>
<path style=" stroke:none;fill-rule:nonzero;fill:rgb(65.882355%,17.254902%,78.039217%);fill-opacity:1;" d="M 5 9 C 5.328125 9 5.660156 9 6 9 C 6 9.328125 6 9.660156 6 10 C 5.671875 10 5.339844 10 5 10 C 5 9.671875 5 9.339844 5 9 Z M 5 9 "/>
<path style=" stroke:none;fill-rule:nonzero;fill:rgb(45.490196%,0%,56.862748%);fill-opacity:1;" d="M 11 8 C 11.328125 8 11.660156 8 12 8 C 12 8.328125 12 8.660156 12 9 C 11.671875 9 11.339844 9 11 9 C 11 8.671875 11 8.339844 11 8 Z M 11 8 "/>
<path style=" stroke:none;fill-rule:nonzero;fill:rgb(45.490196%,0%,56.862748%);fill-opacity:1;" d="M 9 8 C 9.328125 8 9.660156 8 10 8 C 10 8.328125 10 8.660156 10 9 C 9.671875 9 9.339844 9 9 9 C 9 8.671875 9 8.339844 9 8 Z M 9 8 "/>
<path style=" stroke:none;fill-rule:nonzero;fill:rgb(54.509807%,3.137255%,67.450982%);fill-opacity:1;" d="M 11 6 C 11.328125 6 11.660156 6 12 6 C 12 6.328125 12 6.660156 12 7 C 11.671875 7 11.339844 7 11 7 C 11 6.671875 11 6.339844 11 6 Z M 11 6 "/>
<path style=" stroke:none;fill-rule:nonzero;fill:rgb(54.509807%,3.137255%,67.450982%);fill-opacity:1;" d="M 9 6 C 9.328125 6 9.660156 6 10 6 C 10 6.328125 10 6.660156 10 7 C 9.671875 7 9.339844 7 9 7 C 9 6.671875 9 6.339844 9 6 Z M 9 6 "/>
<path style=" stroke:none;fill-rule:nonzero;fill:rgb(45.490196%,0%,56.862748%);fill-opacity:1;" d="M 6 4 C 6.328125 4 6.660156 4 7 4 C 7 4.328125 7 4.660156 7 5 C 6.671875 5 6.339844 5 6 5 C 6 4.671875 6 4.339844 6 4 Z M 6 4 "/>
<path style=" stroke:none;fill-rule:nonzero;fill:rgb(65.882355%,17.254902%,78.039217%);fill-opacity:1;" d="M 2 3 C 2.328125 3 2.660156 3 3 3 C 3 3.328125 3 3.660156 3 4 C 2.671875 4 2.339844 4 2 4 C 2 3.671875 2 3.339844 2 3 Z M 2 3 "/>
<path style=" stroke:none;fill-rule:nonzero;fill:rgb(65.882355%,17.254902%,78.039217%);fill-opacity:1;" d="M 3 2 C 3.328125 2 3.660156 2 4 2 C 4 2.328125 4 2.660156 4 3 C 3.671875 3 3.339844 3 3 3 C 3 2.671875 3 2.339844 3 2 Z M 3 2 "/>
<path style=" stroke:none;fill-rule:nonzero;fill:rgb(65.882355%,17.254902%,78.039217%);fill-opacity:1;" d="M 4 1 C 4.328125 1 4.660156 1 5 1 C 5 1.328125 5 1.660156 5 2 C 4.671875 2 4.339844 2 4 2 C 4 1.671875 4 1.339844 4 1 Z M 4 1 "/>
</g>
</svg>
