<?xml version="1.0" encoding="UTF-8"?>
<svg xmlns="http://www.w3.org/2000/svg" xmlns:xlink="http://www.w3.org/1999/xlink" width="16px" height="16px" viewBox="0 0 16 16" version="1.1">
<g id="surface1">
<path style=" stroke:none;fill-rule:nonzero;fill:rgb(18.431373%,63.137257%,92.941177%);fill-opacity:1;" d="M 1 0 C 5.621094 0 10.238281 0 15 0 C 15 0.328125 15 0.660156 15 1 C 15.328125 1 15.660156 1 16 1 C 16 3.96875 16 6.941406 16 10 C 15.671875 10 15.339844 10 15 10 C 15 11.320312 15 12.640625 15 14 C 14.671875 14 14.339844 14 14 14 C 14 14.328125 14 14.660156 14 15 C 13.339844 15 12.679688 15 12 15 C 12 15.328125 12 15.660156 12 16 C 9.359375 16 6.71875 16 4 16 C 4 15.671875 4 15.339844 4 15 C 3.339844 15 2.679688 15 2 15 C 2 14.671875 2 14.339844 2 14 C 1.671875 14 1.339844 14 1 14 C 1 12.679688 1 11.359375 1 10 C 0.671875 10 0.339844 10 0 10 C 0 7.03125 0 4.058594 0 1 C 0.328125 1 0.660156 1 1 1 C 1 0.671875 1 0.339844 1 0 Z M 1 0 "/>
<path style=" stroke:none;fill-rule:nonzero;fill:rgb(100%,100%,100%);fill-opacity:1;" d="M 3 3 C 6.300781 3 9.601562 3 13 3 C 13 5.96875 13 8.941406 13 12 C 12.671875 12 12.339844 12 12 12 C 12 12.328125 12 12.660156 12 13 C 9.359375 13 6.71875 13 4 13 C 4 12.671875 4 12.339844 4 12 C 3.671875 12 3.339844 12 3 12 C 3 11.339844 3 10.679688 3 10 C 3.660156 10 4.320312 10 5 10 C 5 10.328125 5 10.660156 5 11 C 6.980469 11 8.960938 11 11 11 C 11 10.011719 11 9.019531 11 8 C 8.359375 8 5.71875 8 3 8 C 3 7.339844 3 6.679688 3 6 C 5.640625 6 8.28125 6 11 6 C 11 5.671875 11 5.339844 11 5 C 8.359375 5 5.71875 5 3 5 C 3 4.339844 3 3.679688 3 3 Z M 3 3 "/>
<path style=" stroke:none;fill-rule:nonzero;fill:rgb(35.686275%,74.117649%,100%);fill-opacity:1;" d="M 6 0 C 8.96875 0 11.941406 0 15 0 C 15 0.328125 15 0.660156 15 1 C 15.328125 1 15.660156 1 16 1 C 16 3.96875 16 6.941406 16 10 C 15.671875 10 15.339844 10 15 10 C 15 11.320312 15 12.640625 15 14 C 14.671875 14 14.339844 14 14 14 C 14 14.328125 14 14.660156 14 15 C 12.019531 15 10.039062 15 8 15 C 8 14.339844 8 13.679688 8 13 C 9.320312 13 10.640625 13 12 13 C 12 12.671875 12 12.339844 12 12 C 12.328125 12 12.660156 12 13 12 C 13 9.03125 13 6.058594 13 3 C 11.351562 3 9.699219 3 8 3 C 8 2.339844 8 1.679688 8 1 C 7.339844 1 6.679688 1 6 1 C 6 0.671875 6 0.339844 6 0 Z M 6 0 "/>
<path style=" stroke:none;fill-rule:nonzero;fill:rgb(89.019608%,90.196079%,100%);fill-opacity:1;" d="M 3 10 C 3.660156 10 4.320312 10 5 10 C 5 10.328125 5 10.660156 5 11 C 5.988281 11 6.980469 11 8 11 C 8 11.660156 8 12.320312 8 13 C 6.679688 13 5.359375 13 4 13 C 4 12.671875 4 12.339844 4 12 C 3.671875 12 3.339844 12 3 12 C 3 11.339844 3 10.679688 3 10 Z M 3 10 "/>
<path style=" stroke:none;fill-rule:nonzero;fill:rgb(89.019608%,90.196079%,100%);fill-opacity:1;" d="M 3 6 C 4.648438 6 6.300781 6 8 6 C 8 6.660156 8 7.320312 8 8 C 6.351562 8 4.699219 8 3 8 C 3 7.339844 3 6.679688 3 6 Z M 3 6 "/>
<path style=" stroke:none;fill-rule:nonzero;fill:rgb(89.019608%,90.196079%,100%);fill-opacity:1;" d="M 3 3 C 4.648438 3 6.300781 3 8 3 C 8 3.660156 8 4.320312 8 5 C 6.351562 5 4.699219 5 3 5 C 3 4.339844 3 3.679688 3 3 Z M 3 3 "/>
<path style=" stroke:none;fill-rule:nonzero;fill:rgb(35.686275%,74.117649%,100%);fill-opacity:1;" d="M 8 8 C 8.988281 8 9.980469 8 11 8 C 11 8.988281 11 9.980469 11 11 C 10.011719 11 9.019531 11 8 11 C 8 10.011719 8 9.019531 8 8 Z M 8 8 "/>
<path style=" stroke:none;fill-rule:nonzero;fill:rgb(18.431373%,63.137257%,92.941177%);fill-opacity:1;" d="M 15 1 C 15.328125 1 15.660156 1 16 1 C 16 3.96875 16 6.941406 16 10 C 15.671875 10 15.339844 10 15 10 C 15 7.03125 15 4.058594 15 1 Z M 15 1 "/>
<path style=" stroke:none;fill-rule:nonzero;fill:rgb(10.980392%,52.941179%,81.176472%);fill-opacity:1;" d="M 0 1 C 0.328125 1 0.660156 1 1 1 C 1 3.96875 1 6.941406 1 10 C 0.671875 10 0.339844 10 0 10 C 0 7.03125 0 4.058594 0 1 Z M 0 1 "/>
<path style=" stroke:none;fill-rule:nonzero;fill:rgb(18.431373%,63.137257%,92.941177%);fill-opacity:1;" d="M 14 10 C 14.328125 10 14.660156 10 15 10 C 15 11.320312 15 12.640625 15 14 C 14.671875 14 14.339844 14 14 14 C 14 12.679688 14 11.359375 14 10 Z M 14 10 "/>
<path style=" stroke:none;fill-rule:nonzero;fill:rgb(10.980392%,52.941179%,81.176472%);fill-opacity:1;" d="M 1 10 C 1.328125 10 1.660156 10 2 10 C 2 11.320312 2 12.640625 2 14 C 1.671875 14 1.339844 14 1 14 C 1 12.679688 1 11.359375 1 10 Z M 1 10 "/>
<path style=" stroke:none;fill-rule:nonzero;fill:rgb(10.980392%,52.941179%,81.176472%);fill-opacity:1;" d="M 4 15 C 4.988281 15 5.980469 15 7 15 C 7 15.328125 7 15.660156 7 16 C 6.011719 16 5.019531 16 4 16 C 4 15.671875 4 15.339844 4 15 Z M 4 15 "/>
<path style=" stroke:none;fill-rule:nonzero;fill:rgb(35.686275%,74.117649%,100%);fill-opacity:1;" d="M 8 5 C 8.988281 5 9.980469 5 11 5 C 11 5.328125 11 5.660156 11 6 C 10.011719 6 9.019531 6 8 6 C 8 5.671875 8 5.339844 8 5 Z M 8 5 "/>
<path style=" stroke:none;fill-rule:nonzero;fill:rgb(18.431373%,63.137257%,92.941177%);fill-opacity:1;" d="M 12 14 C 12.660156 14 13.320312 14 14 14 C 14 14.328125 14 14.660156 14 15 C 13.339844 15 12.679688 15 12 15 C 12 14.671875 12 14.339844 12 14 Z M 12 14 "/>
<path style=" stroke:none;fill-rule:nonzero;fill:rgb(10.980392%,52.941179%,81.176472%);fill-opacity:1;" d="M 2 14 C 2.660156 14 3.320312 14 4 14 C 4 14.328125 4 14.660156 4 15 C 3.339844 15 2.679688 15 2 15 C 2 14.671875 2 14.339844 2 14 Z M 2 14 "/>
<path style=" stroke:none;fill-rule:nonzero;fill:rgb(18.431373%,63.137257%,92.941177%);fill-opacity:1;" d="M 14 0 C 14.328125 0 14.660156 0 15 0 C 15 0.328125 15 0.660156 15 1 C 14.671875 1 14.339844 1 14 1 C 14 0.671875 14 0.339844 14 0 Z M 14 0 "/>
</g>
</svg>
