<?xml version="1.0" encoding="UTF-8"?>
<svg xmlns="http://www.w3.org/2000/svg" xmlns:xlink="http://www.w3.org/1999/xlink" width="16px" height="16px" viewBox="0 0 16 16" version="1.1">
<g id="surface1">
<path style=" stroke:none;fill-rule:nonzero;fill:rgb(35.686275%,74.117649%,100%);fill-opacity:1;" d="M 6 0 C 7.648438 0 9.300781 0 11 0 C 11 0.328125 11 0.660156 11 1 C 11.328125 1 11.660156 1 12 1 C 12 1.328125 12 1.660156 12 2 C 12.328125 2 12.660156 2 13 2 C 13 2.328125 13 2.660156 13 3 C 13.328125 3 13.660156 3 14 3 C 14 3.328125 14 3.660156 14 4 C 14.328125 4 14.660156 4 15 4 C 15 4.328125 15 4.660156 15 5 C 15.328125 5 15.660156 5 16 5 C 16 7.640625 16 10.28125 16 13 C 15.011719 13 14.019531 13 13 13 C 13 13.988281 13 14.980469 13 16 C 10.691406 16 8.378906 16 6 16 C 6 15.671875 6 15.339844 6 15 C 5.671875 15 5.339844 15 5 15 C 5 14.671875 5 14.339844 5 14 C 4.671875 14 4.339844 14 4 14 C 4 13.671875 4 13.339844 4 13 C 3.671875 13 3.339844 13 3 13 C 3 12.671875 3 12.339844 3 12 C 2.671875 12 2.339844 12 2 12 C 2 11.671875 2 11.339844 2 11 C 1.671875 11 1.339844 11 1 11 C 1 10.671875 1 10.339844 1 10 C 0.671875 10 0.339844 10 0 10 C 0 9.011719 0 8.019531 0 7 C 0.328125 7 0.660156 7 1 7 C 1 6.339844 1 5.679688 1 5 C 1.328125 5 1.660156 5 2 5 C 2 4.339844 2 3.679688 2 3 C 2.328125 3 2.660156 3 3 3 C 3 2.671875 3 2.339844 3 2 C 3.328125 2 3.660156 2 4 2 C 4 1.671875 4 1.339844 4 1 C 4.660156 1 5.320312 1 6 1 C 6 0.671875 6 0.339844 6 0 Z M 6 0 "/>
<path style=" stroke:none;fill-rule:nonzero;fill:rgb(3.921569%,37.64706%,60.392159%);fill-opacity:1;" d="M 4 3 C 7.300781 3 10.601562 3 14 3 C 14 3.328125 14 3.660156 14 4 C 14.328125 4 14.660156 4 15 4 C 15 4.328125 15 4.660156 15 5 C 15.328125 5 15.660156 5 16 5 C 16 7.640625 16 10.28125 16 13 C 15.011719 13 14.019531 13 13 13 C 13 12.671875 13 12.339844 13 12 C 12.671875 12 12.339844 12 12 12 C 12 11.671875 12 11.339844 12 11 C 11.671875 11 11.339844 11 11 11 C 11 10.671875 11 10.339844 11 10 C 10.671875 10 10.339844 10 10 10 C 10 9.671875 10 9.339844 10 9 C 9.671875 9 9.339844 9 9 9 C 9 8.671875 9 8.339844 9 8 C 8.671875 8 8.339844 8 8 8 C 8 7.671875 8 7.339844 8 7 C 7.671875 7 7.339844 7 7 7 C 7 6.671875 7 6.339844 7 6 C 6.671875 6 6.339844 6 6 6 C 6 5.671875 6 5.339844 6 5 C 5.671875 5 5.339844 5 5 5 C 5 4.671875 5 4.339844 5 4 C 4.671875 4 4.339844 4 4 4 C 4 3.671875 4 3.339844 4 3 Z M 4 3 "/>
<path style=" stroke:none;fill-rule:nonzero;fill:rgb(35.686275%,74.117649%,100%);fill-opacity:1;" d="M 6 0 C 7.648438 0 9.300781 0 11 0 C 11 0.328125 11 0.660156 11 1 C 11.328125 1 11.660156 1 12 1 C 12 1.328125 12 1.660156 12 2 C 12.328125 2 12.660156 2 13 2 C 13 2.328125 13 2.660156 13 3 C 9.699219 3 6.398438 3 3 3 C 3 2.671875 3 2.339844 3 2 C 3.328125 2 3.660156 2 4 2 C 4 1.671875 4 1.339844 4 1 C 4.660156 1 5.320312 1 6 1 C 6 0.671875 6 0.339844 6 0 Z M 6 0 "/>
<path style=" stroke:none;fill-rule:nonzero;fill:rgb(3.921569%,37.64706%,60.392159%);fill-opacity:1;" d="M 2 3 C 2.328125 3 2.660156 3 3 3 C 3 5.96875 3 8.941406 3 12 C 2.671875 12 2.339844 12 2 12 C 2 11.671875 2 11.339844 2 11 C 1.671875 11 1.339844 11 1 11 C 1 10.671875 1 10.339844 1 10 C 0.671875 10 0.339844 10 0 10 C 0 9.011719 0 8.019531 0 7 C 0.328125 7 0.660156 7 1 7 C 1 6.339844 1 5.679688 1 5 C 1.328125 5 1.660156 5 2 5 C 2 4.339844 2 3.679688 2 3 Z M 2 3 "/>
<path style=" stroke:none;fill-rule:nonzero;fill:rgb(3.921569%,37.64706%,60.392159%);fill-opacity:1;" d="M 3 2 C 3.328125 2 3.660156 2 4 2 C 4 2.328125 4 2.660156 4 3 C 3.671875 3 3.339844 3 3 3 C 3 2.671875 3 2.339844 3 2 Z M 3 2 "/>
</g>
</svg>
